<svg width="102" height="38" viewBox="0 0 102 38" fill="none" xmlns="http://www.w3.org/2000/svg">
  <path
    fillRule="evenodd"
    clipRule="evenodd"
    d="M53.8199 14.1711C53.8889 14.1711 53.9561 14.2237 53.9561 14.3074V17.2276H56.3005C56.361 17.2276 56.437 17.2751 56.437 17.3633V19.7343C56.437 19.8198 56.3651 19.8692 56.3005 19.8692H53.9561V24.7161C53.9561 25.2182 54.2416 25.5238 54.944 25.5238H56.3005C56.3919 25.5238 56.437 25.6024 56.437 25.6601V27.744C56.437 27.8195 56.3754 27.8611 56.3455 27.8721C55.5257 28.1792 55.0628 28.3621 54.1097 28.3621C51.7442 28.3621 50.7846 26.9864 50.7846 25.0436V19.8692H49.45C49.3689 19.8692 49.3135 19.8026 49.3135 19.7338V17.8754C49.3135 17.8109 49.3621 17.7591 49.4085 17.7456C49.4546 17.7321 51.1763 17.2276 51.1763 17.2276C51.1763 17.2276 52.1123 14.3071 52.1262 14.2636C52.14 14.2199 52.1894 14.1711 52.2561 14.1711H53.8199ZM99.3827 14.1711C99.4519 14.1711 99.5189 14.2237 99.5189 14.3074V17.2276H101.864C101.924 17.2276 102 17.2751 102 17.3633V19.7343C102 19.8198 101.928 19.8692 101.864 19.8692H99.5189V24.7161C99.5189 25.2182 99.8046 25.5238 100.507 25.5238H101.864C101.955 25.5238 102 25.6024 102 25.6601V27.744C102 27.8195 101.938 27.8611 101.909 27.8721C101.089 28.1792 100.626 28.3621 99.6725 28.3621C97.3072 28.3621 96.3476 26.9864 96.3476 25.0436V19.8692H95.0131C94.9317 19.8692 94.8766 19.8026 94.8766 19.7338V17.8754C94.8766 17.8109 94.9252 17.7591 94.9716 17.7456C95.0177 17.7321 96.7394 17.2276 96.7394 17.2276C96.7394 17.2276 97.6754 14.3071 97.689 14.2636C97.7031 14.2199 97.7525 14.1711 97.8192 14.1711H99.3827ZM80.4489 16.9563C83.2746 16.9563 84.9307 17.6284 84.9307 20.6201V27.878C84.9307 27.9573 84.863 28.013 84.7935 28.013H82.0049C81.935 28.0103 81.8881 27.968 81.8726 27.9128C81.8609 27.8708 81.69 27.2668 81.6102 26.985L81.6037 26.9637L81.5091 27.0785C80.7388 27.9708 79.7494 28.2295 78.5672 28.2295C76.4918 28.2295 75.388 26.6469 75.388 24.7826C75.388 21.9642 77.4852 21.4005 79.0529 21.4005H81.7413V20.6876C81.7413 19.8097 81.0975 19.6147 78.6711 19.6066L78.5067 19.6064C77.4252 19.6064 76.2711 19.6905 76.2106 19.6905C76.1432 19.6905 76.0725 19.6324 76.0725 19.5552V17.5877C76.0725 17.5175 76.1314 17.4653 76.1833 17.4554C77.7081 17.1631 79.1124 16.9563 80.4489 16.9563ZM43.523 16.9563C47.4113 16.9563 48.7759 19.1461 48.7759 22.593C48.7759 26.0616 47.4113 28.2295 43.523 28.2295C39.6568 28.2295 38.2924 26.0616 38.2924 22.593C38.2924 19.1461 39.6568 16.9563 43.523 16.9563ZM30.5687 12.8448C30.6531 12.8448 30.7048 12.9149 30.7048 12.9803V18.3789H30.7487C31.5154 17.4206 32.6714 16.9844 33.9419 16.9844C36.2204 16.9844 36.9483 18.4661 36.9483 20.4274V27.9614C36.9483 28.0233 36.8969 28.0968 36.8122 28.0968H33.92C33.8418 28.0968 33.7835 28.0314 33.7835 27.9614V20.7031C33.7835 19.8536 32.8904 19.5921 32.3208 19.5921C31.7512 19.5921 30.7048 19.9624 30.7048 21.0302V27.9614C30.7048 28.0174 30.6604 28.0968 30.5681 28.0968H27.6762C27.6129 28.0968 27.54 28.0457 27.54 27.9614V12.9803C27.54 12.91 27.5961 12.8448 27.6762 12.8448H30.5687ZM71.0237 16.9563C73.3125 16.9563 74.0439 18.4417 74.0439 20.4079V27.9608C74.0439 28.0407 73.9762 28.0968 73.9071 28.0968H70.984C70.8972 28.0968 70.8474 28.0213 70.8474 27.9608V20.7351C70.8474 19.8835 70.0355 19.5536 69.4635 19.5536C68.7987 19.5536 67.8152 19.9709 67.7711 20.9319V27.9608C67.7711 28.028 67.7211 28.0968 67.6338 28.0968H64.709C64.6342 28.0968 64.5743 28.0312 64.5743 27.9611V20.7351C64.5743 19.8835 63.7134 19.5536 63.0876 19.5536C62.5156 19.5536 61.498 19.9928 61.498 21.0631V27.9608C61.498 28.0218 61.4491 28.0968 61.3631 28.0968H58.4546C58.3689 28.0968 58.3186 28.0231 58.3186 27.9611V17.3107C58.3186 17.2337 58.3825 17.1749 58.4554 17.1749H61.0813C61.1466 17.1749 61.1994 17.2235 61.2116 17.2699C61.2241 17.3164 61.5154 18.3543 61.5154 18.3543H61.5592C62.3298 17.3936 63.4741 16.9563 64.7506 16.9563C66.3135 16.9563 67.0666 17.6554 67.485 18.7257H67.5728C68.3654 17.4154 69.7472 16.9563 71.0237 16.9563ZM93.2587 16.9563C93.3265 16.9542 93.3982 17.0082 93.3982 17.0921V20.0628C93.3982 20.1454 93.3276 20.2 93.2622 20.2H92.5232C90.5326 20.2 89.8376 20.9961 89.8376 21.9794V27.9608C89.8376 28.048 89.763 28.0968 89.7025 28.0968H86.8139C86.7398 28.0968 86.6779 28.0342 86.6779 27.9608V17.3089C86.6779 17.2341 86.7417 17.1728 86.8134 17.1728H89.3965C89.4684 17.1728 89.5192 17.2252 89.5303 17.2852C89.5414 17.3454 89.8376 18.9426 89.8376 18.9426H89.8814C90.5769 17.5109 92.0193 16.9922 93.2587 16.9563ZM81.7413 23.3303H79.9895C79.0589 23.3303 78.4565 23.6799 78.4565 24.6473C78.4565 25.6956 79.2231 25.9373 79.9622 25.9373C80.6465 25.9373 81.7413 25.5343 81.7413 24.1902V23.3303ZM43.523 19.6016C42.0058 19.6016 41.7267 20.7286 41.7267 22.593C41.7267 24.4573 42.0058 25.6013 43.523 25.6013C45.0614 25.6013 45.3413 24.4573 45.3413 22.593C45.3413 20.7286 45.0614 19.6016 43.523 19.6016Z"
    fill="#053D4E"
  />
  <path
    fillRule="evenodd"
    clipRule="evenodd"
    d="M10.782 26.6797C8.00942 26.6569 5.78063 24.3843 5.8034 21.6036C5.82617 18.8229 8.09226 16.5873 10.8646 16.6104C13.6371 16.6332 15.8659 18.906 15.8431 21.6865C15.8203 24.4672 13.5543 26.7028 10.782 26.6797ZM21.6442 21.6371C21.7803 18.9633 20.8665 14.5866 18.629 11.0091C18.5696 10.9163 18.4686 10.953 18.4902 11.0511C18.6394 11.5965 18.6752 12.5818 17.8108 12.5234C16.2793 12.4205 17.8643 9.13299 14.5008 6.85244C14.4335 6.80678 14.3531 6.86775 14.3899 6.94062C14.6205 7.38031 14.7575 8.75136 14.2247 9.21874C13.7972 9.59357 13.0124 9.49276 12.258 8.25799C11.0004 6.20044 11.4778 4.0003 12.3323 2.62609C12.3965 2.52334 12.3086 2.48253 12.2354 2.50682C7.60833 4.03844 6.68455 9.50758 5.69998 11.5024C5.5348 11.8367 5.39165 12.0116 5.10924 11.9927C4.2666 11.9361 4.87357 10.1329 5.16543 9.50515C5.20636 9.41673 5.10512 9.3679 5.05062 9.42498C2.66852 11.922 0.512157 16.1731 0.102343 20.1235C0.115422 20.03 0.0640743 20.45 0.039127 20.7575C0.039127 20.7578 0.039127 20.7583 0.039127 20.7583C0.0294387 20.8787 0.0214459 20.9995 0.0149063 21.1204C0.00812454 21.265 0.00158496 21.4098 0.00037393 21.5558C-0.048794 27.5506 4.75707 32.4503 10.7342 32.4996C16.7114 32.5489 21.5967 27.7294 21.6461 21.7346C21.6464 21.7018 21.6442 21.6697 21.6442 21.6371Z"
    fill="#EF4E23"
  />
</svg>
